<svg id="Layer_2" data-name="Layer 2" xmlns="http://www.w3.org/2000/svg" viewBox="0 0 1024 1024"><defs><style>.cls-1{fill:#7065ad;}.cls-2{fill:#f493b7;}.cls-3{fill:#fff;}</style></defs><rect class="cls-1" width="1024" height="1024"/><circle class="cls-2" cx="322.31" cy="512" r="101.45"/><rect class="cls-1" x="226.01" y="464.26" width="122.53" height="61.31" rx="30.66" transform="translate(-265.82 348.09) rotate(-45)"/><circle class="cls-3" cx="265.56" cy="516.63" r="20"/><circle class="cls-3" cx="308.92" cy="473.27" r="20"/><rect class="cls-1" x="296.09" y="498.43" width="122.53" height="61.31" rx="30.66" transform="translate(-269.45 407.65) rotate(-45)"/><circle class="cls-3" cx="335.64" cy="550.8" r="20"/><circle class="cls-3" cx="378.99" cy="507.44" r="20"/><path class="cls-3" d="M554.68,548.59c0,34.73-19.81,61.13-60.27,61.13H443V412.28H491c40.17,0,57.39,23.24,57.39,55.67,0,28.13-15.78,37.6-15.78,37.6S554.68,516.17,554.68,548.59Zm-73.47-98.14V491.2h8.9c17.5,0,19.22-13.2,19.22-20.38s-1.72-20.37-19.22-20.37Zm13.2,78.06h-13.2v43h13.2c15.5,0,20.09-13.2,20.09-21.52C514.5,542,511.63,528.51,494.41,528.51Z"/><path class="cls-3" d="M606.27,412.28V545.15c0,8.32-.86,28.12,14.93,28.12s14.92-19.8,14.92-28.12V412.28h40.75V555.19c0,34.15-19.8,58.26-55.67,58.26s-55.68-24.39-55.68-58.26V412.28Z"/><path class="cls-3" d="M803.14,548.59c0,34.73-19.8,61.13-60.27,61.13H691.5V412.28h47.93c40.17,0,57.39,23.24,57.39,55.67,0,28.13-15.78,37.6-15.78,37.6S803.14,516.17,803.14,548.59Zm-73.47-98.14V491.2h8.9c17.5,0,19.22-13.2,19.22-20.38s-1.72-20.37-19.22-20.37Zm13.2,78.06h-13.2v43h13.2c15.5,0,20.09-13.2,20.09-21.52C763,542,760.09,528.51,742.87,528.51Z"/></svg>